<?xml version="1.0" encoding="utf-8"?>
<!-- Generator: Adobe Illustrator 25.4.1, SVG Export Plug-In . SVG Version: 6.00 Build 0)  -->
<svg version="1.1" id="Layer_1" xmlns="http://www.w3.org/2000/svg" xmlns:xlink="http://www.w3.org/1999/xlink" x="0px" y="0px"
	 viewBox="0 0 491.77 88.41" style="enable-background:new 0 0 491.77 88.41;" xml:space="preserve">
<style type="text/css">
	.st0{fill:#319745;}
	.st1{fill:#FFFFFF;}
</style>
<g>
	<path class="st0" d="M54.27,46.05c0,16.14-13.77,26.93-27.14,26.93S0,62.19,0,46.05c0-15.93,13.77-26.52,27.14-26.52
		S54.27,30.12,54.27,46.05z M38.65,46.05c0-15.93-3.91-23.54-11.52-23.54s-11.51,7.61-11.51,23.54c0,16.14,3.9,23.84,11.51,23.84
		S38.65,62.19,38.65,46.05z"/>
	<path class="st0" d="M115.13,46.05c0,17.07-9.04,26.93-21.89,26.93c-8.53,0-14.9-4.63-18.09-12.95v28.37h-14.8V20.56h14.8v11.82
		c3.19-8.22,9.67-12.85,18.29-12.85C106.19,19.53,115.13,29.3,115.13,46.05z M99.51,46.05c0-13.57-5.04-21.29-11.92-21.29
		c-6.99,0-12.44,8.23-12.44,21.29c0,13.26,5.45,21.69,12.44,21.69C94.47,67.74,99.51,59.82,99.51,46.05z"/>
	<path class="st0" d="M169.92,53.96c-1.13,12.86-10.28,19.02-22.3,19.02c-17.27,0-28.69-10.68-28.69-26.93
		c0-15.83,10.69-26.52,26.52-26.52c13.37,0,24.26,8.33,23.75,26.93h-34.64c0.3,15.42,5.85,21.9,16.44,21.9
		c8.12,0,14.29-4.73,15.32-14.39H169.92z M134.56,43.58h20.45c-0.1-9.97-1.75-21.07-9.46-21.07
		C138.56,22.51,134.86,29.4,134.56,43.58z"/>
	<path class="st1" d="M281.05,38.85v33.1h-6.48V39.78c0-10.28-6.07-15.93-14.6-15.93c-9.77,0-16.96,7.41-17.89,19.64v28.47h-6.58V0
		h6.58v35.06c2.98-9.67,9.97-15.53,20.05-15.53C273.13,19.53,281.05,26.72,281.05,38.85z"/>
	<path class="st1" d="M340.26,46.05c0,16.14-12.23,26.93-26.12,26.93c-13.88,0-26.11-10.79-26.11-26.93
		c0-15.93,12.23-26.52,26.11-26.52C328.02,19.53,340.26,30.12,340.26,46.05z M333.37,46.05c0-14.9-8.02-23.54-19.23-23.54
		c-11.2,0-19.22,8.64-19.22,23.54c0,15.11,8.01,23.84,19.22,23.84C325.34,69.9,333.37,61.16,333.37,46.05z"/>
	<path class="st1" d="M392.78,20.56v51.4h-2.98l-2.88-14.7c-2.97,9.76-10.48,15.73-20.76,15.73c-11.01,0-18.92-7.19-18.92-19.32
		v-33.1h6.58v32.18c0,10.28,6.06,15.93,14.59,15.93c10.38,0,17.89-8.53,17.89-22.41v-25.7H392.78z"/>
	<path class="st1" d="M439.24,57.97c0,8.95-7.5,15.01-18.6,15.01c-12.14,0-20.77-7.09-20.77-19.02h3.8
		c0,9.98,6.88,15.74,16.55,15.74c8.12,0,13.47-3.91,13.47-9.98c0-15.62-32.79-5.55-32.79-25.49c0-8.83,7.6-14.7,18.19-14.7
		c10.9,0,18.2,6.58,18.2,17.07h-3.7c0-8.43-5.65-13.77-14.08-13.77c-7.71,0-13.05,3.9-13.05,9.66
		C406.45,47.9,439.24,38.03,439.24,57.97z"/>
	<path class="st1" d="M491.77,53.96c-1.03,11.93-9.98,19.02-21.79,19.02c-17.38,0-26.63-10.68-26.63-26.93
		c0-15.83,9.25-26.52,25.29-26.52c13.47,0,22.82,9.77,22.41,26.93h-40.8c0.31,14.39,6.58,22.82,20.56,22.82
		c9.46,0,16.44-6.06,17.37-15.32H491.77z M450.24,43.58h34.54c-0.31-13.16-6.06-21.07-16.04-21.07
		C457.13,22.51,450.75,29.81,450.24,43.58z"/>
	<path class="st0" d="M175.99,71.95V20.04l13.47,16.45c2.06-10.38,8.12-16.96,19.02-16.96c11,0,17.68,7.2,17.68,18.51v33.92h-14.8
		V36.69c0-7.2-2.98-11-8.43-11c-2.47,0-4.53,0.82-6.28,2.36c-3.8,3.29-5.96,9.87-5.96,18.19v25.7H175.99z"/>
</g>
</svg>
